<svg width="64" height="64" viewBox="0 0 64 64" fill="none" xmlns="http://www.w3.org/2000/svg">
<path d="M53.2195 53.2194C47.5959 58.843 39.9686 62.0024 32.0156 62.0024H31.9844C24.0314 62.0023 16.4041 58.8429 10.7805 53.2192C5.15693 47.5956 1.99762 39.9684 1.99756 32.0154V31.9997C1.99756 28.0598 2.77358 24.1584 4.28134 20.5184C5.7891 16.8783 7.99909 13.5709 10.7851 10.7849C13.5711 7.99897 16.8785 5.78902 20.5185 4.28128C24.1586 2.77355 28.06 1.99753 32 1.99756C35.94 1.9975 39.8414 2.7735 43.4815 4.28123C47.1215 5.78895 50.429 7.99888 53.215 10.7848C56.001 13.5708 58.2109 16.8782 59.7187 20.5183C61.2264 24.1584 62.0025 28.0598 62.0024 31.9997V32.0154C62.0024 39.9684 58.8431 47.5957 53.2195 53.2194Z" stroke="#F0F0F0" stroke-width="3.99512"/>
<path fill-rule="evenodd" clip-rule="evenodd" d="M50 32C50 22.0596 41.9404 14 32 14C22.0596 14 14 22.0596 14 32C14 40.9835 20.5814 48.4306 29.1878 49.7824V37.2044H24.6162V32H29.1878V28.0334C29.1878 23.5226 31.876 21.0293 35.9868 21.0293C37.9561 21.0293 40.0166 21.3812 40.0166 21.3812V25.811H37.746C35.5109 25.811 34.8122 27.1981 34.8122 28.6232V31.9999H39.8039L39.0065 37.2042H34.8121V49.7823C43.4184 48.4329 49.9999 40.9859 49.9999 31.9999L50 32Z" fill="#F0F0F0"/>
</svg>
