<svg width="64" height="64" viewBox="0 0 64 64" fill="none" xmlns="http://www.w3.org/2000/svg">
<path d="M32.0156 62.0024H31.9846C24.0316 62.0024 16.4043 58.843 10.7806 53.2194C5.15697 47.5957 1.99762 39.9684 1.99756 32.0154V31.9997C1.99756 28.0598 2.77358 24.1584 4.28134 20.5184C5.7891 16.8783 7.99909 13.5709 10.7851 10.7849C13.5711 7.99897 16.8785 5.78902 20.5185 4.28128C24.1586 2.77355 28.06 1.99753 32 1.99756C35.94 1.9975 39.8414 2.7735 43.4815 4.28123C47.1215 5.78895 50.429 7.99888 53.215 10.7848C56.001 13.5708 58.2109 16.8782 59.7187 20.5183C61.2264 24.1584 62.0025 28.0598 62.0024 31.9997V32.0154C62.0024 39.9684 58.8431 47.5957 53.2195 53.2194C47.5959 58.843 39.9686 62.0024 32.0156 62.0024Z" stroke="#F0F0F0" stroke-width="3.99512"/>
<path d="M31.9996 18.883C36.2721 18.883 36.778 18.8992 38.4653 18.9764C39.4799 18.9883 40.4848 19.1746 41.4363 19.5273C42.1263 19.7934 42.7529 20.2011 43.2759 20.7241C43.7988 21.247 44.2065 21.8737 44.4727 22.5637C44.8252 23.5152 45.0116 24.5201 45.0236 25.5347C45.1005 27.2217 45.1168 27.7278 45.1168 32.0003C45.1168 36.2727 45.1005 36.7781 45.0236 38.4653C45.0116 39.4799 44.8253 40.4849 44.4727 41.4363C44.2065 42.1263 43.7988 42.753 43.2758 43.276C42.7529 43.799 42.1262 44.2068 41.4363 44.473C40.4848 44.8255 39.4798 45.0119 38.4653 45.0241C36.7782 45.1009 36.2723 45.1173 31.9996 45.1173C27.7269 45.1173 27.2213 45.1009 25.5343 45.0241C24.5197 45.0119 23.5147 44.8255 22.5632 44.473C21.8732 44.2068 21.2466 43.799 20.7237 43.276C20.2007 42.753 19.793 42.1263 19.5268 41.4363C19.1742 40.4849 18.9878 39.4799 18.9757 38.4653C18.8987 36.7781 18.8827 36.2722 18.8827 32.0003C18.8827 27.7283 18.8987 27.2217 18.9757 25.5347C18.9879 24.5201 19.1743 23.5152 19.5268 22.5637C19.793 21.8737 20.2006 21.247 20.7236 20.7241C21.2466 20.2011 21.8732 19.7934 22.5632 19.5273C23.5147 19.1746 24.5197 18.9883 25.5343 18.9764C27.2216 18.8992 27.7274 18.883 31.9996 18.883ZM31.9996 16C27.6544 16 27.1096 16.0185 25.4029 16.0964C24.0756 16.123 22.7624 16.3743 21.519 16.8398C20.4562 17.251 19.491 17.8796 18.6852 18.6855C17.8794 19.4913 17.2509 20.4566 16.8398 21.5195C16.3743 22.7627 16.1228 24.0759 16.0962 25.4031C16.0182 27.1098 16 27.6548 16 32.0003C16 36.3457 16.0182 36.8902 16.0962 38.5969C16.1228 39.9243 16.3743 41.2375 16.8398 42.4808C17.2509 43.5436 17.8795 44.5088 18.6853 45.3146C19.4912 46.1204 20.4564 46.7489 21.5193 47.1599C22.7626 47.6256 24.0758 47.8772 25.4032 47.9039C27.1099 47.9816 27.6546 48 31.9999 48C36.3451 48 36.8901 47.9816 38.5968 47.9039C39.9242 47.8772 41.2374 47.6256 42.4807 47.1599C43.5435 46.7488 44.5087 46.1202 45.3146 45.3145C46.1204 44.5087 46.749 43.5436 47.1602 42.4808C47.6257 41.2375 47.8772 39.9243 47.9038 38.5969C47.9818 36.8902 48 36.3455 48 32.0003C48 27.655 47.9818 27.1098 47.9038 25.4031C47.8772 24.0759 47.6257 22.7627 47.1602 21.5195C46.749 20.4567 46.1204 19.4914 45.3146 18.6856C44.5088 17.8797 43.5435 17.2511 42.4807 16.8398C41.2374 16.3744 39.9241 16.123 38.5968 16.0964C36.8901 16.0185 36.3454 16 31.9999 16H31.9996Z" fill="#F0F0F0"/>
<path d="M31.9998 24C30.4175 24 28.8709 24.4693 27.5553 25.3483C26.2397 26.2274 25.2144 27.4768 24.6089 28.9386C24.0035 30.4004 23.845 32.009 24.1537 33.5608C24.4624 35.1126 25.2243 36.5381 26.3431 37.6569C27.4619 38.7757 28.8874 39.5376 30.4392 39.8463C31.9911 40.155 33.5995 39.9966 35.0613 39.3911C36.5231 38.7856 37.7726 37.7603 38.6516 36.4447C39.5307 35.1292 40 33.5825 40 32.0003C40 30.9496 39.7931 29.9093 39.3911 28.9386C38.989 27.968 38.3997 27.086 37.6568 26.3431C36.9139 25.6002 36.032 25.011 35.0613 24.6089C34.0907 24.2069 33.0504 24 31.9998 24ZM31.9998 37.1937C30.9727 37.1937 29.9687 36.8891 29.1147 36.3185C28.2607 35.7479 27.5951 34.9368 27.2021 33.9879C26.8091 33.039 26.7062 31.9949 26.9066 30.9875C27.107 29.9802 27.6016 29.0549 28.3279 28.3287C29.0542 27.6024 29.9795 27.1079 30.9868 26.9075C31.9942 26.7072 33.0383 26.8101 33.9872 27.2031C34.9361 27.5962 35.747 28.2619 36.3176 29.1159C36.8882 29.9699 37.1927 30.9739 37.1927 32.001C37.1923 33.378 36.645 34.6984 35.6712 35.672C34.6974 36.6456 33.3768 37.1925 31.9998 37.1925V37.1937Z" fill="#F0F0F0"/>
<path d="M43 22.9995C43.0001 23.3951 42.8829 23.7818 42.6632 24.1108C42.4435 24.4397 42.1312 24.6962 41.7657 24.8476C41.4003 24.9991 40.9981 25.0387 40.6101 24.9616C40.2221 24.8845 39.8657 24.6941 39.586 24.4144C39.3062 24.1347 39.1157 23.7784 39.0385 23.3904C38.9613 23.0024 39.0008 22.6003 39.1522 22.2348C39.3036 21.8693 39.5599 21.5569 39.8888 21.3371C40.2177 21.1173 40.6044 21 41 21C41.5303 21 42.039 21.2107 42.414 21.5856C42.7891 21.9606 42.9999 22.4692 43 22.9995Z" fill="#F0F0F0"/>
</svg>
