<svg width="64" height="64" viewBox="0 0 64 64" fill="none" xmlns="http://www.w3.org/2000/svg">
<path d="M32.0155 62.0024H31.9842C24.0313 62.0024 16.404 58.843 10.7805 53.2194C5.15687 47.5957 1.99756 39.9684 1.99756 32.0153V32C1.99756 24.0429 5.15851 16.4116 10.785 10.785C16.4116 5.15848 24.0428 1.99756 31.9999 1.99756C35.9399 1.99753 39.8413 2.77354 43.4813 4.28128C47.1214 5.78903 50.4289 7.99898 53.2149 10.785C56.0009 13.571 58.2108 16.8784 59.7186 20.5185C61.2264 24.1586 62.0024 28.06 62.0024 32V32.0153C62.0024 39.9684 58.8431 47.5957 53.2195 53.2194C47.5958 58.8431 39.9685 62.0024 32.0155 62.0024Z" stroke="#F0F0F0" stroke-width="3.99512"/>
<path d="M16.6654 25.8551H23.1809V46.81H16.6654V25.8551ZM19.9235 15.4366C20.6706 15.4362 21.401 15.6574 22.0223 16.0722C22.6437 16.487 23.128 17.0768 23.4141 17.7669C23.7001 18.457 23.7751 19.2165 23.6295 19.9492C23.4838 20.6819 23.1241 21.355 22.5958 21.8833C22.0676 22.4115 21.3945 22.7712 20.6618 22.9169C19.929 23.0625 19.1696 22.9876 18.4795 22.7015C17.7893 22.4154 17.1996 21.9311 16.7848 21.3098C16.37 20.6884 16.1488 19.958 16.1492 19.211C16.1501 18.2102 16.5481 17.2508 17.2557 16.5432C17.9633 15.8355 18.9228 15.4376 19.9235 15.4366Z" fill="#F0F0F0"/>
<path d="M27.2659 25.8551H33.514V28.7176H33.603C34.4726 27.071 36.5979 25.3328 39.7663 25.3328C46.3567 25.3328 47.5741 29.672 47.5741 35.3168V46.8108H41.0685V36.6209C41.0685 34.1891 41.0212 31.0635 37.6833 31.0635C34.294 31.0635 33.777 33.7116 33.777 36.4445V46.8108H27.2669L27.2659 25.8551Z" fill="#F0F0F0"/>
</svg>
