<?xml version="1.0" encoding="utf-8"?>
<!-- Generator: Adobe Illustrator 25.0.1, SVG Export Plug-In . SVG Version: 6.00 Build 0)  -->
<svg version="1.1" id="Layer_1" xmlns="http://www.w3.org/2000/svg" xmlns:xlink="http://www.w3.org/1999/xlink" x="0px" y="0px"
	 viewBox="0 0 607.39 315.38" style="enable-background:new 0 0 607.39 315.38;" xml:space="preserve">
<style type="text/css">
	.st0{stroke:#000000;stroke-width:7.3912;stroke-miterlimit:10;}
	.st1{fill:#FFFFFF;}
</style>
<g>
	<g>
		<g>
			<path class="st0" d="M567.95,286.3H59.45c-19.74,0-35.74-16-35.74-35.74V39.44c0-19.74,16-35.74,35.74-35.74h508.51
				c19.74,0,35.74,16,35.74,35.74v211.12C603.7,270.29,587.69,286.3,567.95,286.3z"/>
			<path class="st0" d="M567.85,286.42H59.35c-19.74,0-35.74-16-35.74-35.74V39.56c0-19.74,16-35.74,35.74-35.74h508.51
				c19.74,0,35.74,16,35.74,35.74v211.12C603.6,270.42,587.59,286.42,567.85,286.42z"/>
			<path class="st0" d="M567.75,286.55H59.25c-19.74,0-35.74-16-35.74-35.74V39.69c0-19.74,16-35.74,35.74-35.74h508.51
				c19.74,0,35.74,16,35.74,35.74v211.12C603.5,270.55,587.49,286.55,567.75,286.55z"/>
			<path class="st0" d="M567.66,286.68H59.15c-19.74,0-35.74-16-35.74-35.74V39.82c0-19.74,16-35.74,35.74-35.74h508.51
				c19.74,0,35.74,16,35.74,35.74v211.12C603.4,270.67,587.39,286.68,567.66,286.68z"/>
			<path class="st0" d="M567.56,286.8H59.05c-19.74,0-35.74-16-35.74-35.74V39.94c0-19.74,16-35.74,35.74-35.74h508.51
				c19.74,0,35.74,16,35.74,35.74v211.12C603.3,270.8,587.3,286.8,567.56,286.8z"/>
			<path class="st0" d="M567.46,286.93H58.95c-19.74,0-35.74-16-35.74-35.74V40.07c0-19.74,16-35.74,35.74-35.74h508.51
				c19.74,0,35.74,16,35.74,35.74v211.12C603.2,270.93,587.2,286.93,567.46,286.93z"/>
			<path class="st0" d="M567.36,287.06H58.85c-19.74,0-35.74-16-35.74-35.74V40.2c0-19.74,16-35.74,35.74-35.74h508.51
				c19.74,0,35.74,16,35.74,35.74v211.12C603.1,271.05,587.1,287.06,567.36,287.06z"/>
			<path class="st0" d="M567.26,287.18H58.75c-19.74,0-35.74-16-35.74-35.74V40.32c0-19.74,16-35.74,35.74-35.74h508.51
				c19.74,0,35.74,16,35.74,35.74v211.12C603,271.18,587,287.18,567.26,287.18z"/>
			<path class="st0" d="M567.16,287.31H58.65c-19.74,0-35.74-16-35.74-35.74V40.45c0-19.74,16-35.74,35.74-35.74h508.51
				c19.74,0,35.74,16,35.74,35.74v211.12C602.9,271.31,586.9,287.31,567.16,287.31z"/>
			<path class="st0" d="M567.06,287.43H58.55c-19.74,0-35.74-16-35.74-35.74V40.57c0-19.74,16-35.74,35.74-35.74h508.51
				c19.74,0,35.74,16,35.74,35.74v211.12C602.8,271.43,586.8,287.43,567.06,287.43z"/>
			<path class="st0" d="M566.96,287.56H58.45c-19.74,0-35.74-16-35.74-35.74V40.7c0-19.74,16-35.74,35.74-35.74h508.51
				c19.74,0,35.74,16,35.74,35.74v211.12C602.7,271.56,586.7,287.56,566.96,287.56z"/>
			<path class="st0" d="M566.86,287.69H58.35c-19.74,0-35.74-16-35.74-35.74V40.83c0-19.74,16-35.74,35.74-35.74h508.51
				c19.74,0,35.74,16,35.74,35.74v211.12C602.6,271.68,586.6,287.69,566.86,287.69z"/>
			<path class="st0" d="M566.76,287.81H58.25c-19.74,0-35.74-16-35.74-35.74V40.95c0-19.74,16-35.74,35.74-35.74h508.51
				c19.74,0,35.74,16,35.74,35.74v211.12C602.5,271.81,586.5,287.81,566.76,287.81z"/>
			<path class="st0" d="M566.66,287.94H58.15c-19.74,0-35.74-16-35.74-35.74V41.08c0-19.74,16-35.74,35.74-35.74h508.51
				c19.74,0,35.74,16,35.74,35.74V252.2C602.4,271.94,586.4,287.94,566.66,287.94z"/>
			<path class="st0" d="M566.56,288.07H58.05c-19.74,0-35.74-16-35.74-35.74V41.21c0-19.74,16-35.74,35.74-35.74h508.51
				c19.74,0,35.74,16,35.74,35.74v211.12C602.3,272.06,586.3,288.07,566.56,288.07z"/>
			<path class="st0" d="M566.46,288.19H57.95c-19.74,0-35.74-16-35.74-35.74V41.33c0-19.74,16-35.74,35.74-35.74h508.51
				c19.74,0,35.74,16,35.74,35.74v211.12C602.2,272.19,586.2,288.19,566.46,288.19z"/>
			<path class="st0" d="M566.36,288.32H57.85c-19.74,0-35.74-16-35.74-35.74V41.46c0-19.74,16-35.74,35.74-35.74h508.51
				c19.74,0,35.74,16,35.74,35.74v211.12C602.1,272.32,586.1,288.32,566.36,288.32z"/>
			<path class="st0" d="M566.26,288.44H57.75c-19.74,0-35.74-16-35.74-35.74V41.59c0-19.74,16-35.74,35.74-35.74l508.51,0
				c19.74,0,35.74,16,35.74,35.74V252.7C602,272.44,586,288.44,566.26,288.44z"/>
			<path class="st0" d="M566.16,288.57H57.65c-19.74,0-35.74-16-35.74-35.74V41.71c0-19.74,16-35.74,35.74-35.74h508.51
				c19.74,0,35.74,16,35.74,35.74v211.12C601.9,272.57,585.9,288.57,566.16,288.57z"/>
			<path class="st0" d="M566.06,288.7H57.55c-19.74,0-35.74-16-35.74-35.74V41.84c0-19.74,16-35.74,35.74-35.74h508.51
				c19.74,0,35.74,16,35.74,35.74v211.12C601.8,272.7,585.8,288.7,566.06,288.7z"/>
			<path class="st0" d="M565.96,288.82H57.45c-19.74,0-35.74-16-35.74-35.74V41.96c0-19.74,16-35.74,35.74-35.74h508.51
				c19.74,0,35.74,16,35.74,35.74v211.12C601.7,272.82,585.7,288.82,565.96,288.82z"/>
			<path class="st0" d="M565.86,288.95H57.36c-19.74,0-35.74-16-35.74-35.74V42.09c0-19.74,16-35.74,35.74-35.74h508.51
				c19.74,0,35.74,16,35.74,35.74v211.12C601.61,272.95,585.6,288.95,565.86,288.95z"/>
			<path class="st0" d="M565.76,289.08H57.26c-19.74,0-35.74-16-35.74-35.74V42.22c0-19.74,16-35.74,35.74-35.74h508.51
				c19.74,0,35.74,16,35.74,35.74v211.12C601.51,273.07,585.5,289.08,565.76,289.08z"/>
			<path class="st0" d="M565.66,289.2H57.16c-19.74,0-35.74-16-35.74-35.74V42.34c0-19.74,16-35.74,35.74-35.74h508.51
				c19.74,0,35.74,16,35.74,35.74v211.12C601.41,273.2,585.4,289.2,565.66,289.2z"/>
			<path class="st0" d="M565.56,289.33H57.06c-19.74,0-35.74-16-35.74-35.74V42.47c0-19.74,16-35.74,35.74-35.74h508.51
				c19.74,0,35.74,16,35.74,35.74v211.12C601.31,273.33,585.3,289.33,565.56,289.33z"/>
			<path class="st0" d="M565.47,289.46H56.96c-19.74,0-35.74-16-35.74-35.74V42.6c0-19.74,16-35.74,35.74-35.74h508.51
				c19.74,0,35.74,16,35.74,35.74v211.12C601.21,273.45,585.2,289.46,565.47,289.46z"/>
			<path class="st0" d="M565.37,289.58H56.86c-19.74,0-35.74-16-35.74-35.74V42.72c0-19.74,16-35.74,35.74-35.74h508.51
				c19.74,0,35.74,16,35.74,35.74v211.12C601.11,273.58,585.11,289.58,565.37,289.58z"/>
			<path class="st0" d="M565.27,289.71H56.76c-19.74,0-35.74-16-35.74-35.74V42.85c0-19.74,16-35.74,35.74-35.74h508.51
				c19.74,0,35.74,16,35.74,35.74v211.12C601.01,273.71,585.01,289.71,565.27,289.71z"/>
			<path class="st0" d="M565.17,289.83H56.66c-19.74,0-35.74-16-35.74-35.74V42.97c0-19.74,16-35.74,35.74-35.74h508.51
				c19.74,0,35.74,16,35.74,35.74v211.12C600.91,273.83,584.91,289.83,565.17,289.83z"/>
			<path class="st0" d="M565.07,289.96H56.56c-19.74,0-35.74-16-35.74-35.74V43.1c0-19.74,16-35.74,35.74-35.74h508.51
				c19.74,0,35.74,16,35.74,35.74v211.12C600.81,273.96,584.81,289.96,565.07,289.96z"/>
			<path class="st0" d="M564.97,290.09H56.46c-19.74,0-35.74-16-35.74-35.74V43.23c0-19.74,16-35.74,35.74-35.74h508.51
				c19.74,0,35.74,16,35.74,35.74v211.12C600.71,274.08,584.71,290.09,564.97,290.09z"/>
			<path class="st0" d="M564.87,290.21H56.36c-19.74,0-35.74-16-35.74-35.74V43.35c0-19.74,16-35.74,35.74-35.74h508.51
				c19.74,0,35.74,16,35.74,35.74v211.12C600.61,274.21,584.61,290.21,564.87,290.21z"/>
			<path class="st0" d="M564.77,290.34H56.26c-19.74,0-35.74-16-35.74-35.74V43.48c0-19.74,16-35.74,35.74-35.74h508.51
				c19.74,0,35.74,16,35.74,35.74V254.6C600.51,274.34,584.51,290.34,564.77,290.34z"/>
			<path class="st0" d="M564.67,290.47H56.16c-19.74,0-35.74-16-35.74-35.74V43.61c0-19.74,16-35.74,35.74-35.74h508.51
				c19.74,0,35.74,16,35.74,35.74v211.12C600.41,274.46,584.41,290.47,564.67,290.47z"/>
			<path class="st0" d="M564.57,290.59H56.06c-19.74,0-35.74-16-35.74-35.74V43.73c0-19.74,16-35.74,35.74-35.74h508.51
				c19.74,0,35.74,16,35.74,35.74v211.12C600.31,274.59,584.31,290.59,564.57,290.59z"/>
			<path class="st0" d="M564.47,290.72H55.96c-19.74,0-35.74-16-35.74-35.74V43.86c0-19.74,16-35.74,35.74-35.74h508.51
				c19.74,0,35.74,16,35.74,35.74v211.12C600.21,274.72,584.21,290.72,564.47,290.72z"/>
			<path class="st0" d="M564.37,290.84H55.86c-19.74,0-35.74-16-35.74-35.74V43.99c0-19.74,16-35.74,35.74-35.74h508.51
				c19.74,0,35.74,16,35.74,35.74V255.1C600.11,274.84,584.11,290.84,564.37,290.84z"/>
			<path class="st0" d="M564.27,290.97H55.76c-19.74,0-35.74-16-35.74-35.74V44.11c0-19.74,16-35.74,35.74-35.74h508.51
				c19.74,0,35.74,16,35.74,35.74v211.12C600.01,274.97,584.01,290.97,564.27,290.97z"/>
			<path class="st0" d="M564.17,291.1H55.66c-19.74,0-35.74-16-35.74-35.74V44.24c0-19.74,16-35.74,35.74-35.74h508.51
				c19.74,0,35.74,16,35.74,35.74v211.12C599.91,275.1,583.91,291.1,564.17,291.1z"/>
			<path class="st0" d="M564.07,291.22H55.56c-19.74,0-35.74-16-35.74-35.74V44.36c0-19.74,16-35.74,35.74-35.74h508.51
				c19.74,0,35.74,16,35.74,35.74v211.12C599.81,275.22,583.81,291.22,564.07,291.22z"/>
			<path class="st0" d="M563.97,291.35H55.46c-19.74,0-35.74-16-35.74-35.74V44.49c0-19.74,16-35.74,35.74-35.74h508.51
				c19.74,0,35.74,16,35.74,35.74v211.12C599.71,275.35,583.71,291.35,563.97,291.35z"/>
			<path class="st0" d="M563.87,291.48H55.36c-19.74,0-35.74-16-35.74-35.74V44.62c0-19.74,16-35.74,35.74-35.74h508.51
				c19.74,0,35.74,16,35.74,35.74v211.12C599.61,275.47,583.61,291.48,563.87,291.48z"/>
			<path class="st0" d="M563.77,291.6H55.26c-19.74,0-35.74-16-35.74-35.74V44.74C19.52,25,35.52,9,55.26,9h508.51
				c19.74,0,35.74,16,35.74,35.74v211.12C599.51,275.6,583.51,291.6,563.77,291.6z"/>
			<path class="st0" d="M563.67,291.73H55.17c-19.74,0-35.74-16-35.74-35.74V44.87c0-19.74,16-35.74,35.74-35.74h508.51
				c19.74,0,35.74,16,35.74,35.74v211.12C599.42,275.73,583.41,291.73,563.67,291.73z"/>
			<path class="st0" d="M563.57,291.86H55.07c-19.74,0-35.74-16-35.74-35.74V45c0-19.74,16-35.74,35.74-35.74h508.51
				c19.74,0,35.74,16,35.74,35.74v211.12C599.32,275.85,583.31,291.86,563.57,291.86z"/>
			<path class="st0" d="M563.47,291.98H54.97c-19.74,0-35.74-16-35.74-35.74V45.12c0-19.74,16-35.74,35.74-35.74h508.51
				c19.74,0,35.74,16,35.74,35.74v211.12C599.22,275.98,583.21,291.98,563.47,291.98z"/>
			<path class="st0" d="M563.37,292.11H54.87c-19.74,0-35.74-16-35.74-35.74V45.25c0-19.74,16-35.74,35.74-35.74h508.51
				c19.74,0,35.74,16,35.74,35.74v211.12C599.12,276.11,583.11,292.11,563.37,292.11z"/>
			<path class="st0" d="M563.28,292.23H54.77c-19.74,0-35.74-16-35.74-35.74V45.37c0-19.74,16-35.74,35.74-35.74h508.51
				c19.74,0,35.74,16,35.74,35.74v211.12C599.02,276.23,583.01,292.23,563.28,292.23z"/>
			<path class="st0" d="M563.18,292.36H54.67c-19.74,0-35.74-16-35.74-35.74V45.5c0-19.74,16-35.74,35.74-35.74h508.51
				c19.74,0,35.74,16,35.74,35.74v211.12C598.92,276.36,582.92,292.36,563.18,292.36z"/>
			<path class="st0" d="M563.08,292.49H54.57c-19.74,0-35.74-16-35.74-35.74V45.63c0-19.74,16-35.74,35.74-35.74h508.51
				c19.74,0,35.74,16,35.74,35.74v211.12C598.82,276.48,582.82,292.49,563.08,292.49z"/>
			<path class="st0" d="M562.98,292.61H54.47c-19.74,0-35.74-16-35.74-35.74V45.75c0-19.74,16-35.74,35.74-35.74h508.51
				c19.74,0,35.74,16,35.74,35.74v211.12C598.72,276.61,582.72,292.61,562.98,292.61z"/>
			<path class="st0" d="M562.88,292.74H54.37c-19.74,0-35.74-16-35.74-35.74V45.88c0-19.74,16-35.74,35.74-35.74h508.51
				c19.74,0,35.74,16,35.74,35.74V257C598.62,276.74,582.62,292.74,562.88,292.74z"/>
			<path class="st0" d="M562.78,292.87H54.27c-19.74,0-35.74-16-35.74-35.74V46.01c0-19.74,16-35.74,35.74-35.74h508.51
				c19.74,0,35.74,16,35.74,35.74v211.12C598.52,276.86,582.52,292.87,562.78,292.87z"/>
			<path class="st0" d="M562.68,292.99H54.17c-19.74,0-35.74-16-35.74-35.74V46.13c0-19.74,16-35.74,35.74-35.74h508.51
				c19.74,0,35.74,16,35.74,35.74v211.12C598.42,276.99,582.42,292.99,562.68,292.99z"/>
			<path class="st0" d="M562.58,293.12H54.07c-19.74,0-35.74-16-35.74-35.74V46.26c0-19.74,16-35.74,35.74-35.74h508.51
				c19.74,0,35.74,16,35.74,35.74v211.12C598.32,277.12,582.32,293.12,562.58,293.12z"/>
			<path class="st0" d="M562.48,293.24H53.97c-19.74,0-35.74-16-35.74-35.74V46.39c0-19.74,16-35.74,35.74-35.74h508.51
				c19.74,0,35.74,16,35.74,35.74V257.5C598.22,277.24,582.22,293.24,562.48,293.24z"/>
			<path class="st0" d="M562.38,293.37H53.87c-19.74,0-35.74-16-35.74-35.74V46.51c0-19.74,16-35.74,35.74-35.74h508.51
				c19.74,0,35.74,16,35.74,35.74v211.12C598.12,277.37,582.12,293.37,562.38,293.37z"/>
			<path class="st0" d="M562.28,293.5H53.77c-19.74,0-35.74-16-35.74-35.74V46.64c0-19.74,16-35.74,35.74-35.74h508.51
				c19.74,0,35.74,16,35.74,35.74v211.12C598.02,277.5,582.02,293.5,562.28,293.5z"/>
			<path class="st0" d="M562.18,293.62H53.67c-19.74,0-35.74-16-35.74-35.74V46.76c0-19.74,16-35.74,35.74-35.74h508.51
				c19.74,0,35.74,16,35.74,35.74v211.12C597.92,277.62,581.92,293.62,562.18,293.62z"/>
			<path class="st0" d="M562.08,293.75H53.57c-19.74,0-35.74-16-35.74-35.74V46.89c0-19.74,16-35.74,35.74-35.74h508.51
				c19.74,0,35.74,16,35.74,35.74v211.12C597.82,277.75,581.82,293.75,562.08,293.75z"/>
			<path class="st0" d="M561.98,293.88H53.47c-19.74,0-35.74-16-35.74-35.74V47.02c0-19.74,16-35.74,35.74-35.74h508.51
				c19.74,0,35.74,16,35.74,35.74v211.12C597.72,277.87,581.72,293.88,561.98,293.88z"/>
			<path class="st0" d="M561.88,294H53.37c-19.74,0-35.74-16-35.74-35.74V47.14c0-19.74,16-35.74,35.74-35.74h508.51
				c19.74,0,35.74,16,35.74,35.74v211.12C597.62,278,581.62,294,561.88,294z"/>
			<path class="st0" d="M561.78,294.13H53.27c-19.74,0-35.74-16-35.74-35.74V47.27c0-19.74,16-35.74,35.74-35.74h508.51
				c19.74,0,35.74,16,35.74,35.74v211.12C597.52,278.13,581.52,294.13,561.78,294.13z"/>
			<path class="st0" d="M561.68,294.26H53.17c-19.74,0-35.74-16-35.74-35.74V47.4c0-19.74,16-35.74,35.74-35.74h508.51
				c19.74,0,35.74,16,35.74,35.74v211.12C597.42,278.25,581.42,294.26,561.68,294.26z"/>
			<path class="st0" d="M561.58,294.38H53.07c-19.74,0-35.74-16-35.74-35.74V47.52c0-19.74,16-35.74,35.74-35.74h508.51
				c19.74,0,35.74,16,35.74,35.74v211.12C597.32,278.38,581.32,294.38,561.58,294.38z"/>
			<path class="st0" d="M561.48,294.51H52.98c-19.74,0-35.74-16-35.74-35.74V47.65c0-19.74,16-35.74,35.74-35.74h508.51
				c19.74,0,35.74,16,35.74,35.74v211.12C597.23,278.51,581.22,294.51,561.48,294.51z"/>
			<path class="st0" d="M561.38,294.63H52.88c-19.74,0-35.74-16-35.74-35.74V47.77c0-19.74,16-35.74,35.74-35.74h508.51
				c19.74,0,35.74,16,35.74,35.74v211.12C597.13,278.63,581.12,294.63,561.38,294.63z"/>
			<path class="st0" d="M561.28,294.76H52.78c-19.74,0-35.74-16-35.74-35.74V47.9c0-19.74,16-35.74,35.74-35.74h508.51
				c19.74,0,35.74,16,35.74,35.74v211.12C597.03,278.76,581.02,294.76,561.28,294.76z"/>
			<path class="st0" d="M561.18,294.89H52.68c-19.74,0-35.74-16-35.74-35.74V48.03c0-19.74,16-35.74,35.74-35.74h508.51
				c19.74,0,35.74,16,35.74,35.74v211.12C596.93,278.88,580.92,294.89,561.18,294.89z"/>
			<path class="st0" d="M561.09,295.01H52.58c-19.74,0-35.74-16-35.74-35.74V48.15c0-19.74,16-35.74,35.74-35.74h508.51
				c19.74,0,35.74,16,35.74,35.74v211.12C596.83,279.01,580.83,295.01,561.09,295.01z"/>
			<path class="st0" d="M560.99,295.14H52.48c-19.74,0-35.74-16-35.74-35.74V48.28c0-19.74,16-35.74,35.74-35.74h508.51
				c19.74,0,35.74,16,35.74,35.74V259.4C596.73,279.14,580.73,295.14,560.99,295.14z"/>
			<path class="st0" d="M560.89,295.27H52.38c-19.74,0-35.74-16-35.74-35.74V48.41c0-19.74,16-35.74,35.74-35.74h508.51
				c19.74,0,35.74,16,35.74,35.74v211.12C596.63,279.26,580.63,295.27,560.89,295.27z"/>
			<path class="st0" d="M560.79,295.39H52.28c-19.74,0-35.74-16-35.74-35.74V48.53c0-19.74,16-35.74,35.74-35.74h508.51
				c19.74,0,35.74,16,35.74,35.74v211.12C596.53,279.39,580.53,295.39,560.79,295.39z"/>
			<path class="st0" d="M560.69,295.52H52.18c-19.74,0-35.74-16-35.74-35.74V48.66c0-19.74,16-35.74,35.74-35.74h508.51
				c19.74,0,35.74,16,35.74,35.74v211.12C596.43,279.52,580.43,295.52,560.69,295.52z"/>
			<path class="st0" d="M560.59,295.65H52.08c-19.74,0-35.74-16-35.74-35.74V48.79c0-19.74,16-35.74,35.74-35.74h508.51
				c19.74,0,35.74,16,35.74,35.74V259.9C596.33,279.64,580.33,295.65,560.59,295.65z"/>
			<path class="st0" d="M560.49,295.77H51.98c-19.74,0-35.74-16-35.74-35.74V48.91c0-19.74,16-35.74,35.74-35.74h508.51
				c19.74,0,35.74,16,35.74,35.74v211.12C596.23,279.77,580.23,295.77,560.49,295.77z"/>
			<path class="st0" d="M560.39,295.9H51.88c-19.74,0-35.74-16-35.74-35.74V49.04c0-19.74,16-35.74,35.74-35.74h508.51
				c19.74,0,35.74,16,35.74,35.74v211.12C596.13,279.9,580.13,295.9,560.39,295.9z"/>
			<path class="st0" d="M560.29,296.02H51.78c-19.74,0-35.74-16-35.74-35.74V49.16c0-19.74,16-35.74,35.74-35.74h508.51
				c19.74,0,35.74,16,35.74,35.74v211.12C596.03,280.02,580.03,296.02,560.29,296.02z"/>
			<path class="st0" d="M560.19,296.15H51.68c-19.74,0-35.74-16-35.74-35.74V49.29c0-19.74,16-35.74,35.74-35.74h508.51
				c19.74,0,35.74,16,35.74,35.74v211.12C595.93,280.15,579.93,296.15,560.19,296.15z"/>
			<path class="st0" d="M560.09,296.28H51.58c-19.74,0-35.74-16-35.74-35.74V49.42c0-19.74,16-35.74,35.74-35.74h508.51
				c19.74,0,35.74,16,35.74,35.74v211.12C595.83,280.27,579.83,296.28,560.09,296.28z"/>
			<path class="st0" d="M559.99,296.4H51.48c-19.74,0-35.74-16-35.74-35.74V49.54c0-19.74,16-35.74,35.74-35.74h508.51
				c19.74,0,35.74,16,35.74,35.74v211.12C595.73,280.4,579.73,296.4,559.99,296.4z"/>
			<path class="st0" d="M559.89,296.53H51.38c-19.74,0-35.74-16-35.74-35.74V49.67c0-19.74,16-35.74,35.74-35.74h508.51
				c19.74,0,35.74,16,35.74,35.74v211.12C595.63,280.53,579.63,296.53,559.89,296.53z"/>
			<path class="st0" d="M559.79,296.66H51.28c-19.74,0-35.74-16-35.74-35.74V49.8c0-19.74,16-35.74,35.74-35.74h508.51
				c19.74,0,35.74,16,35.74,35.74v211.12C595.53,280.65,579.53,296.66,559.79,296.66z"/>
			<path class="st0" d="M559.69,296.78H51.18c-19.74,0-35.74-16-35.74-35.74V49.92c0-19.74,16-35.74,35.74-35.74h508.51
				c19.74,0,35.74,16,35.74,35.74v211.12C595.43,280.78,579.43,296.78,559.69,296.78z"/>
			<path class="st0" d="M559.59,296.91H51.08c-19.74,0-35.74-16-35.74-35.74V50.05c0-19.74,16-35.74,35.74-35.74h508.51
				c19.74,0,35.74,16,35.74,35.74v211.12C595.33,280.91,579.33,296.91,559.59,296.91z"/>
			<path class="st0" d="M559.49,297.03H50.98c-19.74,0-35.74-16-35.74-35.74V50.18c0-19.74,16-35.74,35.74-35.74h508.51
				c19.74,0,35.74,16,35.74,35.74v211.12C595.23,281.03,579.23,297.03,559.49,297.03z"/>
			<path class="st0" d="M559.39,297.16H50.88c-19.74,0-35.74-16-35.74-35.74V50.3c0-19.74,16-35.74,35.74-35.74h508.51
				c19.74,0,35.74,16,35.74,35.74v211.12C595.14,281.16,579.13,297.16,559.39,297.16z"/>
			<path class="st0" d="M559.29,297.29H50.79c-19.74,0-35.74-16-35.74-35.74V50.43c0-19.74,16-35.74,35.74-35.74h508.51
				c19.74,0,35.74,16,35.74,35.74v211.12C595.04,281.29,579.03,297.29,559.29,297.29z"/>
			<path class="st0" d="M559.19,297.41H50.69c-19.74,0-35.74-16-35.74-35.74V50.55c0-19.74,16-35.74,35.74-35.74h508.51
				c19.74,0,35.74,16,35.74,35.74v211.12C594.94,281.41,578.93,297.41,559.19,297.41z"/>
			<path class="st0" d="M559.09,297.54H50.59c-19.74,0-35.74-16-35.74-35.74V50.68c0-19.74,16-35.74,35.74-35.74h508.51
				c19.74,0,35.74,16,35.74,35.74V261.8C594.84,281.54,578.83,297.54,559.09,297.54z"/>
			<path class="st0" d="M558.99,297.67H50.49c-19.74,0-35.74-16-35.74-35.74V50.81c0-19.74,16-35.74,35.74-35.74h508.51
				c19.74,0,35.74,16,35.74,35.74v211.12C594.74,281.66,578.73,297.67,558.99,297.67z"/>
			<path class="st0" d="M558.9,297.79H50.39c-19.74,0-35.74-16-35.74-35.74V50.93c0-19.74,16-35.74,35.74-35.74H558.9
				c19.74,0,35.74,16,35.74,35.74v211.12C594.64,281.79,578.64,297.79,558.9,297.79z"/>
			<path class="st0" d="M558.8,297.92H50.29c-19.74,0-35.74-16-35.74-35.74V51.06c0-19.74,16-35.74,35.74-35.74H558.8
				c19.74,0,35.74,16,35.74,35.74v211.12C594.54,281.92,578.54,297.92,558.8,297.92z"/>
			<path class="st0" d="M558.7,298.05H50.19c-19.74,0-35.74-16-35.74-35.74V51.19c0-19.74,16-35.74,35.74-35.74H558.7
				c19.74,0,35.74,16,35.74,35.74V262.3C594.44,282.04,578.44,298.05,558.7,298.05z"/>
			<path class="st0" d="M558.6,298.17H50.09c-19.74,0-35.74-16-35.74-35.74V51.31c0-19.74,16-35.74,35.74-35.74H558.6
				c19.74,0,35.74,16,35.74,35.74v211.12C594.34,282.17,578.34,298.17,558.6,298.17z"/>
			<path class="st0" d="M558.5,298.3H49.99c-19.74,0-35.74-16-35.74-35.74V51.44c0-19.74,16-35.74,35.74-35.74H558.5
				c19.74,0,35.74,16,35.74,35.74v211.12C594.24,282.3,578.24,298.3,558.5,298.3z"/>
			<path class="st0" d="M558.4,298.42H49.89c-19.74,0-35.74-16-35.74-35.74V51.56c0-19.74,16-35.74,35.74-35.74H558.4
				c19.74,0,35.74,16,35.74,35.74v211.12C594.14,282.42,578.14,298.42,558.4,298.42z"/>
			<path class="st0" d="M558.3,298.55H49.79c-19.74,0-35.74-16-35.74-35.74V51.69c0-19.74,16-35.74,35.74-35.74H558.3
				c19.74,0,35.74,16,35.74,35.74v211.12C594.04,282.55,578.04,298.55,558.3,298.55z"/>
			<path class="st0" d="M558.2,298.68H49.69c-19.74,0-35.74-16-35.74-35.74V51.82c0-19.74,16-35.74,35.74-35.74H558.2
				c19.74,0,35.74,16,35.74,35.74v211.12C593.94,282.67,577.94,298.68,558.2,298.68z"/>
			<path class="st0" d="M558.1,298.8H49.59c-19.74,0-35.74-16-35.74-35.74V51.94c0-19.74,16-35.74,35.74-35.74H558.1
				c19.74,0,35.74,16,35.74,35.74v211.12C593.84,282.8,577.84,298.8,558.1,298.8z"/>
			<path class="st0" d="M558,298.93H49.49c-19.74,0-35.74-16-35.74-35.74V52.07c0-19.74,16-35.74,35.74-35.74H558
				c19.74,0,35.74,16,35.74,35.74v211.12C593.74,282.93,577.74,298.93,558,298.93z"/>
			<path class="st0" d="M557.9,299.06H49.39c-19.74,0-35.74-16-35.74-35.74V52.2c0-19.74,16-35.74,35.74-35.74H557.9
				c19.74,0,35.74,16,35.74,35.74v211.12C593.64,283.05,577.64,299.06,557.9,299.06z"/>
			<path class="st0" d="M557.8,299.18H49.29c-19.74,0-35.74-16-35.74-35.74V52.32c0-19.74,16-35.74,35.74-35.74H557.8
				c19.74,0,35.74,16,35.74,35.74v211.12C593.54,283.18,577.54,299.18,557.8,299.18z"/>
			<path class="st0" d="M557.7,299.31H49.19c-19.74,0-35.74-16-35.74-35.74V52.45c0-19.74,16-35.74,35.74-35.74H557.7
				c19.74,0,35.74,16,35.74,35.74v211.12C593.44,283.31,577.44,299.31,557.7,299.31z"/>
			<path class="st0" d="M557.6,299.43H49.09c-19.74,0-35.74-16-35.74-35.74V52.58c0-19.74,16-35.74,35.74-35.74H557.6
				c19.74,0,35.74,16,35.74,35.74v211.12C593.34,283.43,577.34,299.43,557.6,299.43z"/>
			<path class="st0" d="M557.5,299.56H48.99c-19.74,0-35.74-16-35.74-35.74V52.7c0-19.74,16-35.74,35.74-35.74H557.5
				c19.74,0,35.74,16,35.74,35.74v211.12C593.24,283.56,577.24,299.56,557.5,299.56z"/>
			<path class="st0" d="M557.4,299.69H48.89c-19.74,0-35.74-16-35.74-35.74V52.83c0-19.74,16-35.74,35.74-35.74H557.4
				c19.74,0,35.74,16,35.74,35.74v211.12C593.14,283.69,577.14,299.69,557.4,299.69z"/>
			<path class="st0" d="M557.3,299.81H48.79c-19.74,0-35.74-16-35.74-35.74V52.95c0-19.74,16-35.74,35.74-35.74H557.3
				c19.74,0,35.74,16,35.74,35.74v211.12C593.04,283.81,577.04,299.81,557.3,299.81z"/>
			<path class="st0" d="M557.2,299.94H48.69c-19.74,0-35.74-16-35.74-35.74V53.08c0-19.74,16-35.74,35.74-35.74H557.2
				c19.74,0,35.74,16,35.74,35.74V264.2C592.95,283.94,576.94,299.94,557.2,299.94z"/>
			<path class="st0" d="M557.1,300.07H48.6c-19.74,0-35.74-16-35.74-35.74V53.21c0-19.74,16-35.74,35.74-35.74H557.1
				c19.74,0,35.74,16,35.74,35.74v211.12C592.85,284.06,576.84,300.07,557.1,300.07z"/>
			<path class="st0" d="M557,300.19H48.5c-19.74,0-35.74-16-35.74-35.74V53.33c0-19.74,16-35.74,35.74-35.74H557
				c19.74,0,35.74,16,35.74,35.74v211.12C592.75,284.19,576.74,300.19,557,300.19z"/>
			<path class="st0" d="M556.9,300.32H48.4c-19.74,0-35.74-16-35.74-35.74V53.46c0-19.74,16-35.74,35.74-35.74H556.9
				c19.74,0,35.74,16,35.74,35.74v211.12C592.65,284.32,576.64,300.32,556.9,300.32z"/>
			<path class="st0" d="M556.8,300.45H48.3c-19.74,0-35.74-16-35.74-35.74V53.59c0-19.74,16-35.74,35.74-35.74H556.8
				c19.74,0,35.74,16,35.74,35.74V264.7C592.55,284.44,576.54,300.45,556.8,300.45z"/>
			<path class="st0" d="M556.71,300.57H48.2c-19.74,0-35.74-16-35.74-35.74V53.71c0-19.74,16-35.74,35.74-35.74h508.51
				c19.74,0,35.74,16,35.74,35.74v211.12C592.45,284.57,576.45,300.57,556.71,300.57z"/>
			<path class="st0" d="M556.61,300.7H48.1c-19.74,0-35.74-16-35.74-35.74V53.84c0-19.74,16-35.74,35.74-35.74h508.51
				c19.74,0,35.74,16,35.74,35.74v211.12C592.35,284.7,576.35,300.7,556.61,300.7z"/>
			<path class="st0" d="M556.51,300.82H48c-19.74,0-35.74-16-35.74-35.74V53.96c0-19.74,16-35.74,35.74-35.74h508.51
				c19.74,0,35.74,16,35.74,35.74v211.12C592.25,284.82,576.25,300.82,556.51,300.82z"/>
			<path class="st0" d="M556.41,300.95H47.9c-19.74,0-35.74-16-35.74-35.74V54.09c0-19.74,16-35.74,35.74-35.74h508.51
				c19.74,0,35.74,16,35.74,35.74v211.12C592.15,284.95,576.15,300.95,556.41,300.95z"/>
			<path class="st0" d="M556.31,301.08H47.8c-19.74,0-35.74-16-35.74-35.74V54.22c0-19.74,16-35.74,35.74-35.74h508.51
				c19.74,0,35.74,16,35.74,35.74v211.12C592.05,285.07,576.05,301.08,556.31,301.08z"/>
			<path class="st0" d="M556.21,301.2H47.7c-19.74,0-35.74-16-35.74-35.74V54.34c0-19.74,16-35.74,35.74-35.74h508.51
				c19.74,0,35.74,16,35.74,35.74v211.12C591.95,285.2,575.95,301.2,556.21,301.2z"/>
			<path class="st0" d="M556.11,301.33H47.6c-19.74,0-35.74-16-35.74-35.74V54.47c0-19.74,16-35.74,35.74-35.74h508.51
				c19.74,0,35.74,16,35.74,35.74v211.12C591.85,285.33,575.85,301.33,556.11,301.33z"/>
			<path class="st0" d="M556.01,301.46H47.5c-19.74,0-35.74-16-35.74-35.74V54.6c0-19.74,16-35.74,35.74-35.74h508.51
				c19.74,0,35.74,16,35.74,35.74v211.12C591.75,285.45,575.75,301.46,556.01,301.46z"/>
			<path class="st0" d="M555.91,301.58H47.4c-19.74,0-35.74-16-35.74-35.74V54.72c0-19.74,16-35.74,35.74-35.74h508.51
				c19.74,0,35.74,16,35.74,35.74v211.12C591.65,285.58,575.65,301.58,555.91,301.58z"/>
			<path class="st0" d="M555.81,301.71H47.3c-19.74,0-35.74-16-35.74-35.74V54.85c0-19.74,16-35.74,35.74-35.74h508.51
				c19.74,0,35.74,16,35.74,35.74v211.12C591.55,285.71,575.55,301.71,555.81,301.71z"/>
			<path class="st0" d="M555.71,301.83H47.2c-19.74,0-35.74-16-35.74-35.74V54.98c0-19.74,16-35.74,35.74-35.74h508.51
				c19.74,0,35.74,16,35.74,35.74v211.12C591.45,285.83,575.45,301.83,555.71,301.83z"/>
			<path class="st0" d="M555.61,301.96H47.1c-19.74,0-35.74-16-35.74-35.74V55.1c0-19.74,16-35.74,35.74-35.74h508.51
				c19.74,0,35.74,16,35.74,35.74v211.12C591.35,285.96,575.35,301.96,555.61,301.96z"/>
			<path class="st0" d="M555.51,302.09H47c-19.74,0-35.74-16-35.74-35.74V55.23c0-19.74,16-35.74,35.74-35.74h508.51
				c19.74,0,35.74,16,35.74,35.74v211.12C591.25,286.09,575.25,302.09,555.51,302.09z"/>
			<path class="st0" d="M555.41,302.21H46.9c-19.74,0-35.74-16-35.74-35.74V55.35c0-19.74,16-35.74,35.74-35.74h508.51
				c19.74,0,35.74,16,35.74,35.74v211.12C591.15,286.21,575.15,302.21,555.41,302.21z"/>
			<path class="st0" d="M555.31,302.34H46.8c-19.74,0-35.74-16-35.74-35.74V55.48c0-19.74,16-35.74,35.74-35.74h508.51
				c19.74,0,35.74,16,35.74,35.74V266.6C591.05,286.34,575.05,302.34,555.31,302.34z"/>
			<path class="st0" d="M555.21,302.47H46.7c-19.74,0-35.74-16-35.74-35.74V55.61c0-19.74,16-35.74,35.74-35.74h508.51
				c19.74,0,35.74,16,35.74,35.74v211.12C590.95,286.46,574.95,302.47,555.21,302.47z"/>
			<path class="st0" d="M555.11,302.59H46.6c-19.74,0-35.74-16-35.74-35.74V55.73c0-19.74,16-35.74,35.74-35.74h508.51
				c19.74,0,35.74,16,35.74,35.74v211.12C590.85,286.59,574.85,302.59,555.11,302.59z"/>
			<path class="st0" d="M555.01,302.72H46.51c-19.74,0-35.74-16-35.74-35.74V55.86c0-19.74,16-35.74,35.74-35.74h508.51
				c19.74,0,35.74,16,35.74,35.74v211.12C590.76,286.72,574.75,302.72,555.01,302.72z"/>
			<path class="st0" d="M554.91,302.85H46.41c-19.74,0-35.74-16-35.74-35.74V55.99c0-19.74,16-35.74,35.74-35.74h508.51
				c19.74,0,35.74,16,35.74,35.74V267.1C590.66,286.84,574.65,302.85,554.91,302.85z"/>
			<path class="st0" d="M554.81,302.97H46.31c-19.74,0-35.74-16-35.74-35.74V56.11c0-19.74,16-35.74,35.74-35.74h508.51
				c19.74,0,35.74,16,35.74,35.74v211.12C590.56,286.97,574.55,302.97,554.81,302.97z"/>
			<path class="st0" d="M554.71,303.1H46.21c-19.74,0-35.74-16-35.74-35.74V56.24c0-19.74,16-35.74,35.74-35.74h508.51
				c19.74,0,35.74,16,35.74,35.74v211.12C590.46,287.1,574.45,303.1,554.71,303.1z"/>
			<path class="st0" d="M554.62,303.22H46.11c-19.74,0-35.74-16-35.74-35.74V56.36c0-19.74,16-35.74,35.74-35.74h508.51
				c19.74,0,35.74,16,35.74,35.74v211.12C590.36,287.22,574.35,303.22,554.62,303.22z"/>
			<path class="st0" d="M554.52,303.35H46.01c-19.74,0-35.74-16-35.74-35.74V56.49c0-19.74,16-35.74,35.74-35.74h508.51
				c19.74,0,35.74,16,35.74,35.74v211.12C590.26,287.35,574.26,303.35,554.52,303.35z"/>
			<path class="st0" d="M554.42,303.48H45.91c-19.74,0-35.74-16-35.74-35.74V56.62c0-19.74,16-35.74,35.74-35.74h508.51
				c19.74,0,35.74,16,35.74,35.74v211.12C590.16,287.47,574.16,303.48,554.42,303.48z"/>
			<path class="st0" d="M554.32,303.6H45.81c-19.74,0-35.74-16-35.74-35.74V56.74C10.07,37,26.07,21,45.81,21h508.51
				c19.74,0,35.74,16,35.74,35.74v211.12C590.06,287.6,574.06,303.6,554.32,303.6z"/>
			<path class="st0" d="M554.22,303.73H45.71c-19.74,0-35.74-16-35.74-35.74V56.87c0-19.74,16-35.74,35.74-35.74h508.51
				c19.74,0,35.74,16,35.74,35.74v211.12C589.96,287.73,573.96,303.73,554.22,303.73z"/>
			<path class="st0" d="M554.12,303.86H45.61c-19.74,0-35.74-16-35.74-35.74V57c0-19.74,16-35.74,35.74-35.74h508.51
				c19.74,0,35.74,16,35.74,35.74v211.12C589.86,287.85,573.86,303.86,554.12,303.86z"/>
			<path class="st0" d="M554.02,303.98H45.51c-19.74,0-35.74-16-35.74-35.74V57.12c0-19.74,16-35.74,35.74-35.74h508.51
				c19.74,0,35.74,16,35.74,35.74v211.12C589.76,287.98,573.76,303.98,554.02,303.98z"/>
			<path class="st0" d="M553.92,304.11H45.41c-19.74,0-35.74-16-35.74-35.74V57.25c0-19.74,16-35.74,35.74-35.74h508.51
				c19.74,0,35.74,16,35.74,35.74v211.12C589.66,288.11,573.66,304.11,553.92,304.11z"/>
			<path class="st0" d="M553.82,304.23H45.31c-19.74,0-35.74-16-35.74-35.74V57.38c0-19.74,16-35.74,35.74-35.74h508.51
				c19.74,0,35.74,16,35.74,35.74v211.12C589.56,288.23,573.56,304.23,553.82,304.23z"/>
			<path class="st0" d="M553.72,304.36H45.21c-19.74,0-35.74-16-35.74-35.74V57.5c0-19.74,16-35.74,35.74-35.74h508.51
				c19.74,0,35.74,16,35.74,35.74v211.12C589.46,288.36,573.46,304.36,553.72,304.36z"/>
			<path class="st0" d="M553.62,304.49H45.11c-19.74,0-35.74-16-35.74-35.74V57.63c0-19.74,16-35.74,35.74-35.74h508.51
				c19.74,0,35.74,16,35.74,35.74v211.12C589.36,288.49,573.36,304.49,553.62,304.49z"/>
			<path class="st0" d="M553.52,304.61H45.01c-19.74,0-35.74-16-35.74-35.74V57.75c0-19.74,16-35.74,35.74-35.74h508.51
				c19.74,0,35.74,16,35.74,35.74v211.12C589.26,288.61,573.26,304.61,553.52,304.61z"/>
			<path class="st0" d="M553.42,304.74H44.91c-19.74,0-35.74-16-35.74-35.74V57.88c0-19.74,16-35.74,35.74-35.74h508.51
				c19.74,0,35.74,16,35.74,35.74V269C589.16,288.74,573.16,304.74,553.42,304.74z"/>
			<path class="st0" d="M553.32,304.87H44.81c-19.74,0-35.74-16-35.74-35.74V58.01c0-19.74,16-35.74,35.74-35.74h508.51
				c19.74,0,35.74,16,35.74,35.74v211.12C589.06,288.86,573.06,304.87,553.32,304.87z"/>
			<path class="st0" d="M553.22,304.99H44.71c-19.74,0-35.74-16-35.74-35.74V58.13c0-19.74,16-35.74,35.74-35.74h508.51
				c19.74,0,35.74,16,35.74,35.74v211.12C588.96,288.99,572.96,304.99,553.22,304.99z"/>
			<path class="st0" d="M553.12,305.12H44.61c-19.74,0-35.74-16-35.74-35.74V58.26c0-19.74,16-35.74,35.74-35.74h508.51
				c19.74,0,35.74,16,35.74,35.74v211.12C588.86,289.12,572.86,305.12,553.12,305.12z"/>
			<path class="st0" d="M553.02,305.25H44.51c-19.74,0-35.74-16-35.74-35.74V58.39c0-19.74,16-35.74,35.74-35.74h508.51
				c19.74,0,35.74,16,35.74,35.74V269.5C588.76,289.24,572.76,305.25,553.02,305.25z"/>
			<path class="st0" d="M552.92,305.37H44.41c-19.74,0-35.74-16-35.74-35.74V58.51c0-19.74,16-35.74,35.74-35.74h508.51
				c19.74,0,35.74,16,35.74,35.74v211.12C588.66,289.37,572.66,305.37,552.92,305.37z"/>
			<path class="st0" d="M552.82,305.5H44.32c-19.74,0-35.74-16-35.74-35.74V58.64c0-19.74,16-35.74,35.74-35.74h508.51
				c19.74,0,35.74,16,35.74,35.74v211.12C588.57,289.5,572.56,305.5,552.82,305.5z"/>
			<path class="st0" d="M552.72,305.62H44.22c-19.74,0-35.74-16-35.74-35.74V58.76c0-19.74,16-35.74,35.74-35.74h508.51
				c19.74,0,35.74,16,35.74,35.74v211.12C588.47,289.62,572.46,305.62,552.72,305.62z"/>
			<path class="st0" d="M552.62,305.75H44.12c-19.74,0-35.74-16-35.74-35.74V58.89c0-19.74,16-35.74,35.74-35.74h508.51
				c19.74,0,35.74,16,35.74,35.74v211.12C588.37,289.75,572.36,305.75,552.62,305.75z"/>
			<path class="st0" d="M552.52,305.88H44.02c-19.74,0-35.74-16-35.74-35.74V59.02c0-19.74,16-35.74,35.74-35.74h508.51
				c19.74,0,35.74,16,35.74,35.74v211.12C588.27,289.87,572.26,305.88,552.52,305.88z"/>
			<path class="st0" d="M552.43,306H43.92c-19.74,0-35.74-16-35.74-35.74V59.14c0-19.74,16-35.74,35.74-35.74h508.51
				c19.74,0,35.74,16,35.74,35.74v211.12C588.17,290,572.16,306,552.43,306z"/>
			<path class="st0" d="M552.33,306.13H43.82c-19.74,0-35.74-16-35.74-35.74V59.27c0-19.74,16-35.74,35.74-35.74h508.51
				c19.74,0,35.74,16,35.74,35.74v211.12C588.07,290.13,572.07,306.13,552.33,306.13z"/>
			<path class="st0" d="M552.23,306.26H43.72c-19.74,0-35.74-16-35.74-35.74V59.4c0-19.74,16-35.74,35.74-35.74h508.51
				c19.74,0,35.74,16,35.74,35.74v211.12C587.97,290.25,571.97,306.26,552.23,306.26z"/>
			<path class="st0" d="M552.13,306.38H43.62c-19.74,0-35.74-16-35.74-35.74V59.52c0-19.74,16-35.74,35.74-35.74h508.51
				c19.74,0,35.74,16,35.74,35.74v211.12C587.87,290.38,571.87,306.38,552.13,306.38z"/>
			<path class="st0" d="M552.03,306.51H43.52c-19.74,0-35.74-16-35.74-35.74V59.65c0-19.74,16-35.74,35.74-35.74h508.51
				c19.74,0,35.74,16,35.74,35.74v211.12C587.77,290.51,571.77,306.51,552.03,306.51z"/>
			<path class="st0" d="M551.93,306.64H43.42c-19.74,0-35.74-16-35.74-35.74V59.78c0-19.74,16-35.74,35.74-35.74h508.51
				c19.74,0,35.74,16,35.74,35.74v211.12C587.67,290.63,571.67,306.64,551.93,306.64z"/>
			<path class="st0" d="M551.83,306.76H43.32c-19.74,0-35.74-16-35.74-35.74V59.9c0-19.74,16-35.74,35.74-35.74h508.51
				c19.74,0,35.74,16,35.74,35.74v211.12C587.57,290.76,571.57,306.76,551.83,306.76z"/>
			<path class="st0" d="M551.73,306.89H43.22c-19.74,0-35.74-16-35.74-35.74V60.03c0-19.74,16-35.74,35.74-35.74h508.51
				c19.74,0,35.74,16,35.74,35.74v211.12C587.47,290.89,571.47,306.89,551.73,306.89z"/>
			<path class="st0" d="M551.63,307.01H43.12c-19.74,0-35.74-16-35.74-35.74V60.15c0-19.74,16-35.74,35.74-35.74h508.51
				c19.74,0,35.74,16,35.74,35.74v211.12C587.37,291.01,571.37,307.01,551.63,307.01z"/>
			<path class="st0" d="M551.53,307.14H43.02c-19.74,0-35.74-16-35.74-35.74V60.28c0-19.74,16-35.74,35.74-35.74h508.51
				c19.74,0,35.74,16,35.74,35.74V271.4C587.27,291.14,571.27,307.14,551.53,307.14z"/>
			<path class="st0" d="M551.43,307.27H42.92c-19.74,0-35.74-16-35.74-35.74V60.41c0-19.74,16-35.74,35.74-35.74h508.51
				c19.74,0,35.74,16,35.74,35.74v211.12C587.17,291.26,571.17,307.27,551.43,307.27z"/>
			<path class="st0" d="M551.33,307.39H42.82c-19.74,0-35.74-16-35.74-35.74V60.53c0-19.74,16-35.74,35.74-35.74h508.51
				c19.74,0,35.74,16,35.74,35.74v211.12C587.07,291.39,571.07,307.39,551.33,307.39z"/>
			<path class="st0" d="M551.23,307.52H42.72c-19.74,0-35.74-16-35.74-35.74V60.66c0-19.74,16-35.74,35.74-35.74h508.51
				c19.74,0,35.74,16,35.74,35.74v211.12C586.97,291.52,570.97,307.52,551.23,307.52z"/>
			<path class="st0" d="M551.13,307.65H42.62c-19.74,0-35.74-16-35.74-35.74V60.79c0-19.74,16-35.74,35.74-35.74h508.51
				c19.74,0,35.74,16,35.74,35.74V271.9C586.87,291.64,570.87,307.65,551.13,307.65z"/>
			<path class="st0" d="M551.03,307.77H42.52c-19.74,0-35.74-16-35.74-35.74V60.91c0-19.74,16-35.74,35.74-35.74h508.51
				c19.74,0,35.74,16,35.74,35.74v211.12C586.77,291.77,570.77,307.77,551.03,307.77z"/>
			<path class="st0" d="M550.93,307.9H42.42c-19.74,0-35.74-16-35.74-35.74V61.04c0-19.74,16-35.74,35.74-35.74h508.51
				c19.74,0,35.74,16,35.74,35.74v211.12C586.67,291.9,570.67,307.9,550.93,307.9z"/>
			<path class="st0" d="M550.83,308.02H42.32c-19.74,0-35.74-16-35.74-35.74V61.17c0-19.74,16-35.74,35.74-35.74h508.51
				c19.74,0,35.74,16,35.74,35.74v211.12C586.57,292.02,570.57,308.02,550.83,308.02z"/>
			<path class="st0" d="M550.73,308.15H42.22c-19.74,0-35.74-16-35.74-35.74V61.29c0-19.74,16-35.74,35.74-35.74h508.51
				c19.74,0,35.74,16,35.74,35.74v211.12C586.47,292.15,570.47,308.15,550.73,308.15z"/>
			<path class="st0" d="M550.63,308.28H42.13c-19.74,0-35.74-16-35.74-35.74V61.42c0-19.74,16-35.74,35.74-35.74h508.51
				c19.74,0,35.74,16,35.74,35.74v211.12C586.38,292.28,570.37,308.28,550.63,308.28z"/>
			<path class="st0" d="M550.53,308.4H42.03c-19.74,0-35.74-16-35.74-35.74V61.54c0-19.74,16-35.74,35.74-35.74h508.51
				c19.74,0,35.74,16,35.74,35.74v211.12C586.28,292.4,570.27,308.4,550.53,308.4z"/>
			<path class="st0" d="M550.43,308.53H41.93c-19.74,0-35.74-16-35.74-35.74V61.67c0-19.74,16-35.74,35.74-35.74h508.51
				c19.74,0,35.74,16,35.74,35.74v211.12C586.18,292.53,570.17,308.53,550.43,308.53z"/>
			<path class="st0" d="M550.33,308.66H41.83c-19.74,0-35.74-16-35.74-35.74V61.8c0-19.74,16-35.74,35.74-35.74h508.51
				c19.74,0,35.74,16,35.74,35.74v211.12C586.08,292.65,570.07,308.66,550.33,308.66z"/>
			<path class="st0" d="M550.24,308.78H41.73c-19.74,0-35.74-16-35.74-35.74V61.92c0-19.74,16-35.74,35.74-35.74h508.51
				c19.74,0,35.74,16,35.74,35.74v211.12C585.98,292.78,569.97,308.78,550.24,308.78z"/>
			<path class="st0" d="M550.14,308.91H41.63c-19.74,0-35.74-16-35.74-35.74V62.05c0-19.74,16-35.74,35.74-35.74h508.51
				c19.74,0,35.74,16,35.74,35.74v211.12C585.88,292.91,569.88,308.91,550.14,308.91z"/>
			<path class="st0" d="M550.04,309.04H41.53c-19.74,0-35.74-16-35.74-35.74V62.18c0-19.74,16-35.74,35.74-35.74h508.51
				c19.74,0,35.74,16,35.74,35.74v211.12C585.78,293.03,569.78,309.04,550.04,309.04z"/>
			<path class="st0" d="M549.94,309.16H41.43c-19.74,0-35.74-16-35.74-35.74V62.3c0-19.74,16-35.74,35.74-35.74h508.51
				c19.74,0,35.74,16,35.74,35.74v211.12C585.68,293.16,569.68,309.16,549.94,309.16z"/>
			<path class="st0" d="M549.84,309.29H41.33c-19.74,0-35.74-16-35.74-35.74V62.43c0-19.74,16-35.74,35.74-35.74h508.51
				c19.74,0,35.74,16,35.74,35.74v211.12C585.58,293.29,569.58,309.29,549.84,309.29z"/>
			<path class="st0" d="M549.74,309.41H41.23c-19.74,0-35.74-16-35.74-35.74V62.55c0-19.74,16-35.74,35.74-35.74h508.51
				c19.74,0,35.74,16,35.74,35.74v211.12C585.48,293.41,569.48,309.41,549.74,309.41z"/>
			<path class="st0" d="M549.64,309.54H41.13c-19.74,0-35.74-16-35.74-35.74V62.68c0-19.74,16-35.74,35.74-35.74h508.51
				c19.74,0,35.74,16,35.74,35.74V273.8C585.38,293.54,569.38,309.54,549.64,309.54z"/>
			<path class="st0" d="M549.54,309.67H41.03c-19.74,0-35.74-16-35.74-35.74V62.81c0-19.74,16-35.74,35.74-35.74h508.51
				c19.74,0,35.74,16,35.74,35.74v211.12C585.28,293.66,569.28,309.67,549.54,309.67z"/>
			<path class="st0" d="M549.44,309.79H40.93c-19.74,0-35.74-16-35.74-35.74V62.93c0-19.74,16-35.74,35.74-35.74h508.51
				c19.74,0,35.74,16,35.74,35.74v211.12C585.18,293.79,569.18,309.79,549.44,309.79z"/>
			<path class="st0" d="M549.34,309.92H40.83c-19.74,0-35.74-16-35.74-35.74V63.06c0-19.74,16-35.74,35.74-35.74h508.51
				c19.74,0,35.74,16,35.74,35.74v211.12C585.08,293.92,569.08,309.92,549.34,309.92z"/>
			<path class="st0" d="M549.24,310.05H40.73c-19.74,0-35.74-16-35.74-35.74V63.19c0-19.74,16-35.74,35.74-35.74h508.51
				c19.74,0,35.74,16,35.74,35.74V274.3C584.98,294.04,568.98,310.05,549.24,310.05z"/>
			<path class="st0" d="M549.14,310.17H40.63c-19.74,0-35.74-16-35.74-35.74V63.31c0-19.74,16-35.74,35.74-35.74h508.51
				c19.74,0,35.74,16,35.74,35.74v211.12C584.88,294.17,568.88,310.17,549.14,310.17z"/>
			<path class="st0" d="M549.04,310.3H40.53c-19.74,0-35.74-16-35.74-35.74V63.44c0-19.74,16-35.74,35.74-35.74h508.51
				c19.74,0,35.74,16,35.74,35.74v211.12C584.78,294.3,568.78,310.3,549.04,310.3z"/>
			<path class="st0" d="M548.94,310.42H40.43c-19.74,0-35.74-16-35.74-35.74V63.57c0-19.74,16-35.74,35.74-35.74h508.51
				c19.74,0,35.74,16,35.74,35.74v211.12C584.68,294.42,568.68,310.42,548.94,310.42z"/>
			<path class="st0" d="M548.84,310.55H40.33c-19.74,0-35.74-16-35.74-35.74V63.69c0-19.74,16-35.74,35.74-35.74h508.51
				c19.74,0,35.74,16,35.74,35.74v211.12C584.58,294.55,568.58,310.55,548.84,310.55z"/>
			<path class="st0" d="M548.74,310.68H40.23c-19.74,0-35.74-16-35.74-35.74V63.82c0-19.74,16-35.74,35.74-35.74h508.51
				c19.74,0,35.74,16,35.74,35.74v211.12C584.48,294.68,568.48,310.68,548.74,310.68z"/>
			<path class="st0" d="M548.64,310.8H40.13c-19.74,0-35.74-16-35.74-35.74V63.94c0-19.74,16-35.74,35.74-35.74h508.51
				c19.74,0,35.74,16,35.74,35.74v211.12C584.38,294.8,568.38,310.8,548.64,310.8z"/>
			<path class="st0" d="M548.54,310.93H40.03c-19.74,0-35.74-16-35.74-35.74V64.07c0-19.74,16-35.74,35.74-35.74h508.51
				c19.74,0,35.74,16,35.74,35.74v211.12C584.28,294.93,568.28,310.93,548.54,310.93z"/>
			<path class="st0" d="M548.44,311.06H39.94c-19.74,0-35.74-16-35.74-35.74V64.2c0-19.74,16-35.74,35.74-35.74h508.51
				c19.74,0,35.74,16,35.74,35.74v211.12C584.19,295.05,568.18,311.06,548.44,311.06z"/>
			<path class="st0" d="M548.34,311.18H39.84c-19.74,0-35.74-16-35.74-35.74V64.32c0-19.74,16-35.74,35.74-35.74h508.51
				c19.74,0,35.74,16,35.74,35.74v211.12C584.09,295.18,568.08,311.18,548.34,311.18z"/>
			<path class="st0" d="M548.24,311.31H39.74c-19.74,0-35.74-16-35.74-35.74V64.45c0-19.74,16-35.74,35.74-35.74h508.51
				c19.74,0,35.74,16,35.74,35.74v211.12C583.99,295.31,567.98,311.31,548.24,311.31z"/>
			<path class="st0" d="M548.14,311.44H39.64c-19.74,0-35.74-16-35.74-35.74V64.58c0-19.74,16-35.74,35.74-35.74h508.51
				c19.74,0,35.74,16,35.74,35.74v211.12C583.89,295.43,567.88,311.44,548.14,311.44z"/>
			<path class="st0" d="M548.05,311.56H39.54c-19.74,0-35.74-16-35.74-35.74V64.7c0-19.74,16-35.74,35.74-35.74h508.51
				c19.74,0,35.74,16,35.74,35.74v211.12C583.79,295.56,567.79,311.56,548.05,311.56z"/>
			<path class="st0" d="M547.95,311.69H39.44c-19.74,0-35.74-16-35.74-35.74V64.83c0-19.74,16-35.74,35.74-35.74h508.51
				c19.74,0,35.74,16,35.74,35.74v211.12C583.69,295.69,567.69,311.69,547.95,311.69z"/>
		</g>
		<g>
			<path class="st1" d="M59.45,283.13c-17.96,0-32.57-14.61-32.57-32.57V39.44c0-17.96,14.61-32.57,32.57-32.57h508.51
				c17.96,0,32.57,14.61,32.57,32.57v211.12c0,17.96-14.61,32.57-32.57,32.57H59.45z"/>
			<g>
				<path d="M567.95,10.03c16.21,0,29.41,13.19,29.41,29.41v211.12c0,16.21-13.19,29.41-29.41,29.41H59.45
					c-16.21,0-29.41-13.19-29.41-29.41V39.44c0-16.21,13.19-29.41,29.41-29.41H567.95 M567.95,3.7H59.45
					c-19.74,0-35.74,16-35.74,35.74v211.12c0,19.74,16,35.74,35.74,35.74h508.51c19.74,0,35.74-16,35.74-35.74V39.44
					C603.7,19.7,587.69,3.7,567.95,3.7L567.95,3.7z"/>
			</g>
		</g>
	</g>
	<g>
		<path d="M109.36,195.55V75.97h57.59c12.3,0,21.92,2.85,28.87,8.54c6.95,5.7,10.42,12.81,10.42,21.35s-3.13,15.26-9.4,20.16
			c-2.96,2.05-6.09,3.59-9.4,4.61v0.85c4.33,1.26,8.14,3.02,11.45,5.3c7.74,5.35,11.62,13.27,11.62,23.75
			c0,10.25-3.93,18.65-11.79,25.2c-7.86,6.55-19.02,9.82-33.48,9.82H109.36z M140.97,122.09h19.16c4.21,0,7.4-0.94,9.57-2.82
			c2.16-1.88,3.25-4.36,3.25-7.43c0-3.07-1.08-5.55-3.25-7.43c-2.16-1.88-5.35-2.82-9.57-2.82h-19.16V122.09z M140.97,169.93h20.86
			c5.35,0,9.4-1.08,12.13-3.25c2.73-2.16,4.1-5.07,4.1-8.71c0-3.64-1.37-6.55-4.1-8.71c-2.73-2.16-6.78-3.25-12.13-3.25h-20.86
			V169.93z"/>
		<path d="M219.37,82.8c0-4.1,1.54-7.54,4.61-10.34c3.08-2.79,6.95-4.19,11.62-4.19c4.67,0,8.54,1.4,11.62,4.19
			c3.08,2.79,4.61,6.24,4.61,10.34c0,3.99-1.54,7.4-4.61,10.25c-3.07,2.85-6.95,4.27-11.62,4.27c-4.67,0-8.54-1.42-11.62-4.27
			C220.91,90.21,219.37,86.79,219.37,82.8z"/>
		<rect x="221.08" y="106.72" width="29.04" height="88.83"/>
		<path d="M264.68,195.55v-88.83h29.04v11.96h1.71c1.59-2.84,3.53-5.24,5.81-7.17c5.58-4.9,12.19-7.35,19.82-7.35
			c9.22,0,16.68,2.73,22.38,8.2c2.39,2.28,4.33,4.95,5.81,8.03h1.71c1.37-2.96,3.25-5.64,5.64-8.03c5.47-5.47,12.7-8.2,21.7-8.2
			c10.48,0,18.65,3.16,24.51,9.48c5.86,6.32,8.8,15.4,8.8,27.25v54.67h-29.04v-50.4c0-10.82-4.56-16.23-13.67-16.23
			c-4.9,0-8.83,1.65-11.79,4.95c-2.96,3.3-4.44,7.92-4.44,13.84v47.83h-29.04v-50.4c0-10.82-4.56-16.23-13.67-16.23
			c-4.9,0-8.83,1.65-11.79,4.95c-2.96,3.3-4.44,7.92-4.44,13.84v47.83H264.68z"/>
		<path d="M425.09,223.87V106.72h29.04v11.96h1.71c1.59-2.62,3.76-5.01,6.49-7.17c6.26-4.9,12.92-7.35,19.99-7.35
			c10.93,0,20.21,4.3,27.85,12.9c7.63,8.6,11.45,19.96,11.45,34.08c0,14.12-3.82,25.48-11.45,34.08c-7.63,8.6-16.91,12.9-27.85,12.9
			c-7.17,0-13.84-2.39-19.99-7.18c-2.73-2.16-4.9-4.61-6.49-7.35h-1.71v40.28H425.09z M459.26,134.74
			c-3.42,3.87-5.13,9.34-5.13,16.4c0,7.06,1.71,12.53,5.13,16.4c3.42,3.87,7.97,5.81,13.67,5.81c5.69,0,10.25-1.94,13.67-5.81
			c3.42-3.87,5.13-9.34,5.13-16.4c0-7.06-1.71-12.53-5.13-16.4c-3.42-3.87-7.97-5.81-13.67-5.81
			C467.23,128.93,462.67,130.87,459.26,134.74z"/>
	</g>
</g>
</svg>
