<svg width="64" height="64" viewBox="0 0 64 64" fill="none" xmlns="http://www.w3.org/2000/svg">
<path d="M32.0159 62.0024H31.9844C24.0314 62.0024 16.4041 58.843 10.7805 53.2194C5.15687 47.5957 1.99756 39.9684 1.99756 32.0153V32C1.99756 24.0429 5.15851 16.4116 10.7851 10.785C16.4116 5.15848 24.0429 1.99756 32 1.99756C39.9571 1.99756 47.5884 5.15848 53.2149 10.785C58.8415 16.4116 62.0024 24.0429 62.0024 32V32.0153C62.0025 35.9533 61.2269 39.8526 59.7199 43.4908C58.213 47.129 56.0042 50.4347 53.2197 53.2193C50.4352 56.0039 47.1295 58.2127 43.4913 59.7197C39.8531 61.2267 35.9538 62.0024 32.0159 62.0024Z" stroke="#F0F0F0" stroke-width="3.99512"/>
<path fill-rule="evenodd" clip-rule="evenodd" d="M44.9828 20.7165C46.4126 21.1108 47.5387 22.2725 47.9208 23.7477C48.6153 26.4214 48.6153 32 48.6153 32C48.6153 32 48.6153 37.5785 47.9208 40.2523C47.5387 41.7276 46.4126 42.8892 44.9828 43.2837C42.3915 44 31.9999 44 31.9999 44C31.9999 44 21.6083 44 19.0169 43.2837C17.587 42.8892 16.4609 41.7276 16.0788 40.2523C15.3845 37.5785 15.3845 32 15.3845 32C15.3845 32 15.3845 26.4214 16.0788 23.7477C16.4609 22.2725 17.587 21.1108 19.0169 20.7165C21.6083 20 31.9999 20 31.9999 20C31.9999 20 42.3915 20 44.9828 20.7165ZM28.8845 26.7826V37.2174L37.1922 32.0002L28.8845 26.7826Z" fill="#F0F0F0"/>
</svg>
